<svg xmlns="http://www.w3.org/2000/svg" viewBox="0 0 143.59 143.59"><defs><style>.cls-1{fill:#fff;stroke:#fff;stroke-miterlimit:10;stroke-width:0.44px;}.cls-2{fill:#dda449;}.cls-3{fill:#3a3636;}</style></defs><g id="Capa_2" data-name="Capa 2"><g id="Capa_1-2" data-name="Capa 1"><circle class="cls-1" cx="71.8" cy="71.8" r="71.58"/><path class="cls-2" d="M93.54,77.33V99.68a17.91,17.91,0,0,1-18.12,17.7,18.13,18.13,0,0,1-16.84-11.14,10.67,10.67,0,0,0-9.91-6.56H46.42v-.25c0-15.64,13-28.31,29-28.31A29.26,29.26,0,0,1,93.54,77.33Z"/><path class="cls-3" d="M104.42,45.86V99.68c0,15.2-12.26,27.59-27.64,28.29v5.4H93.54v3.06h-35v-3.06H74.07V128c-15.39-.7-27.65-13.09-27.65-28.29h2.25a10.67,10.67,0,0,1,9.91,6.56,18.1,18.1,0,0,0,15.49,11.09V99.43h2.71v17.9A17.87,17.87,0,0,0,93.54,99.68v-35a29.31,29.31,0,0,1-18.9,6.21c-15.45-.4-28-12.79-28.22-27.88-.24-15.84,12.84-28.74,29-28.74,14.87,0,27.12,10.92,28.8,25h-4A10.18,10.18,0,0,1,91.31,34a18.19,18.19,0,0,0-16.82-9.15A18,18,0,0,0,57.32,41.63a17.92,17.92,0,0,0,19,18.6A18.24,18.24,0,0,0,90.7,52a14.08,14.08,0,0,1,11.79-6.17Z"/><ellipse class="cls-2" cx="46.42" cy="14.24" rx="7.25" ry="7.08"/></g></g></svg>